<?xml version="1.0" encoding="UTF-8" ?>
<!DOCTYPE svg PUBLIC "-//W3C//DTD SVG 1.1//EN" "http://www.w3.org/Graphics/SVG/1.1/DTD/svg11.dtd">
<svg width="479pt" height="512pt" viewBox="0 0 479 512" version="1.1" xmlns="http://www.w3.org/2000/svg">
<path fill="#dd8f87" opacity="1.00" d=" M 288.95 2.90 C 322.81 -2.64 357.70 14.04 378.26 40.76 C 395.50 64.41 398.87 96.01 391.42 123.83 C 402.62 131.77 411.93 142.03 420.15 152.96 C 434.08 172.80 445.53 195.47 445.58 220.30 C 446.02 259.54 422.52 294.08 396.00 321.00 C 373.26 342.43 346.95 359.92 318.66 373.12 C 313.81 375.17 308.96 377.16 304.09 379.15 C 283.93 387.18 262.73 392.49 241.17 394.97 C 238.73 390.73 235.96 386.60 234.21 382.02 C 243.85 367.46 256.24 354.40 264.93 339.22 C 261.11 335.96 257.24 332.68 252.87 330.18 C 240.26 346.71 227.75 363.47 215.56 380.32 C 216.97 385.89 220.79 390.54 223.29 395.68 C 211.75 396.18 200.57 394.16 189.38 391.80 C 176.30 388.24 163.89 382.23 153.12 373.99 C 151.35 372.72 149.63 371.35 148.08 369.82 C 144.12 365.74 140.27 361.55 136.88 356.98 C 185.99 312.43 253.24 292.89 298.93 243.94 C 315.53 225.21 319.64 196.73 308.81 174.15 C 297.40 148.53 271.59 129.52 243.24 128.56 C 243.03 124.06 243.06 119.56 243.00 115.06 C 243.20 101.79 242.64 88.49 243.07 75.23 C 252.25 72.19 268.75 70.46 270.64 56.53 C 270.38 45.22 263.00 32.89 252.13 29.04 C 258.27 14.31 273.81 5.66 288.95 2.90 M 298.29 28.29 C 280.41 29.54 269.99 52.77 281.37 66.68 C 291.79 81.84 318.10 77.61 322.91 59.75 C 329.01 44.08 314.47 26.83 298.29 28.29 Z" />
<path fill="#020101" opacity="1.00" d=" M 298.29 28.29 C 314.47 26.83 329.01 44.08 322.91 59.75 C 318.10 77.61 291.79 81.84 281.37 66.68 C 269.99 52.77 280.41 29.54 298.29 28.29 M 297.71 45.35 C 288.73 47.13 293.33 63.05 302.48 59.67 C 312.08 57.77 307.33 40.74 297.71 45.35 Z" />
<path fill="#d36a5f" opacity="1.00" d=" M 176.26 36.95 C 201.36 33.32 227.61 34.85 252.13 29.04 C 263.00 32.89 270.38 45.22 270.64 56.53 C 268.75 70.46 252.25 72.19 243.07 75.23 C 225.28 58.28 196.37 51.33 176.26 36.95 Z" />
<path fill="#fdfdfd" opacity="1.00" d=" M 297.71 45.35 C 307.33 40.74 312.08 57.77 302.48 59.67 C 293.33 63.05 288.73 47.13 297.71 45.35 Z" />
<path fill="#d36a5f" opacity="1.00" d=" M 237.11 129.05 C 246.90 131.53 238.89 117.72 243.00 115.06 C 243.06 119.56 243.03 124.06 243.24 128.56 C 271.59 129.52 297.40 148.53 308.81 174.15 C 319.64 196.73 315.53 225.21 298.93 243.94 C 253.24 292.89 185.99 312.43 136.88 356.98 C 133.32 359.86 130.37 364.32 126.05 365.83 C 126.25 357.14 127.47 348.52 128.10 339.86 C 131.48 295.90 138.17 251.53 154.31 210.29 C 168.61 173.96 194.32 132.83 237.11 129.05 Z" />
<path fill="#d36a5f" opacity="1.00" d=" M 420.15 152.96 C 457.97 160.98 485.51 203.24 472.87 240.85 C 460.58 277.25 428.60 303.08 396.00 321.00 C 422.52 294.08 446.02 259.54 445.58 220.30 C 445.53 195.47 434.08 172.80 420.15 152.96 Z" />
<path fill="#782921" opacity="1.00" d=" M 215.56 380.32 C 227.75 363.47 240.26 346.71 252.87 330.18 C 257.24 332.68 261.11 335.96 264.93 339.22 C 256.24 354.40 243.85 367.46 234.21 382.02 C 235.96 386.60 238.73 390.73 241.17 394.97 C 252.88 417.52 264.45 440.29 277.05 462.27 C 292.00 464.61 308.80 459.86 322.42 468.57 C 328.04 470.67 325.68 481.90 318.73 478.50 C 312.05 475.70 302.81 471.73 296.12 474.61 C 302.27 479.60 316.57 488.95 305.43 496.79 C 295.59 497.11 294.99 480.63 283.98 481.08 C 287.16 487.95 294.34 492.72 293.87 501.18 C 297.24 508.99 282.71 512.63 283.12 503.80 C 280.96 491.21 270.12 483.21 260.65 475.94 C 250.35 469.40 237.69 480.63 227.46 474.22 C 223.37 457.35 251.95 467.71 258.52 462.32 C 247.39 439.80 234.42 418.22 223.29 395.68 C 220.79 390.54 216.97 385.89 215.56 380.32 Z" />
<path fill="#782921" opacity="1.00" d=" M 2.58 461.43 C 42.14 419.84 86.45 380.33 128.10 339.86 C 127.47 348.52 126.25 357.14 126.05 365.83 C 130.37 364.32 133.32 359.86 136.88 356.98 C 140.27 361.55 144.12 365.74 148.08 369.82 C 120.20 403.40 92.04 436.85 64.78 470.90 C 43.92 468.43 23.55 462.19 2.58 461.43 Z" />
<path fill="#782921" opacity="1.00" d=" M 304.09 379.15 C 308.96 377.16 313.81 375.17 318.66 373.12 C 330.38 393.83 340.17 415.68 352.74 435.90 C 368.32 437.32 388.53 432.01 400.87 444.53 C 400.52 461.60 380.17 441.92 371.63 447.26 C 373.57 451.74 391.25 459.74 382.18 468.32 C 372.48 473.83 370.69 455.24 360.14 454.90 C 363.92 462.37 370.39 469.28 368.71 478.40 C 367.96 483.93 357.00 483.12 358.10 476.82 C 356.04 463.12 343.22 454.97 333.07 447.31 C 323.13 446.02 297.75 456.80 303.16 439.13 C 313.06 436.85 323.43 436.84 333.56 436.38 C 325.34 416.59 312.69 398.73 304.09 379.15 Z" />
<path fill="#782921" opacity="1.00" d=" M 153.12 373.99 C 163.89 382.23 176.30 388.24 189.38 391.80 C 173.90 418.92 156.61 445.17 140.28 471.80 C 119.24 473.06 98.24 470.28 77.21 471.10 C 101.96 438.39 127.96 406.46 153.12 373.99 Z" />
</svg>
