<svg xmlns="http://www.w3.org/2000/svg" width="500" height="300"><path d="m 148.71 288.58 c 93.56 -1.345 137.47 0.043 211.54 -0.765 23.759 1.02 43.543 -14.578 47.13 -39.01 3.972 -24.524 14.549 -65.996 26.27 -70.11 20.15 -8.823 46.607 -7.123 55.55 -29.742 8.44 -22.564 -2.099 -52.31 -26.623 -58.42 -17.541 -16.932 -47.32 -27.945 -68.63 -11.142 -38.831 25.25 -60.59 68.55 -74.56 111.28 2.044 8.599 3.654 20.726 -3.753 22.01 -14.311 2.492 -65.729 -10.863 -123.16 12.993 -44.762 18.596 -107.21 20.03 -148.47 34.558 -12.773 4.935 -41.612 7.727 -35.18 23.633 0.609 4.89 99.87 5.451 139.87 4.717 z" stroke="#000" stroke-width="15.999"/><g transform="matrix(1.94683 0 0 1.94683 -311.83 -1008.65)" stroke="#fff" stroke-linejoin="round" stroke-linecap="round" stroke-width="8.218"><path d="m 227.03 589.07 c 3.504 0.927 0.48 5.18 -1.54 5.823 -5.473 1.743 -9.863 -4.01 -10.11 -8.903 -0.435 -8.75 8.139 -14.792 16.267 -14.389 11.927 0.59 19.817 12.305 18.673 23.63 -1.525 15.09 -16.482 24.881 -30.993 22.956 -18.26 -2.423 -29.964 -20.664 -27.24 -38.36 3.301 -21.428 24.849 -35.06 45.719 -31.522 24.596 4.168 40.16 29.03 35.805 53.08 -5.03 27.764 -33.22 45.27 -60.45 40.09 -30.934 -5.883 -50.37 -37.41 -44.37 -67.809 6.735 -34.1 41.598 -55.49 75.17 -48.654 37.27 7.585 62.38 40.505 67.73 79.29 8.437 7.618 16.634 21.1 9.382 22.07 -29.536 -2.444 -46.539 3.963 -65.55 5.976" stroke="#fff"/><path d="m 396.44 528.31 c -4.797 0.054 -6.72 5.283 -7.601 9.03 -7.956 8.979 -15.909 17.962 -23.868 26.939 7.216 -1.609 15.05 4.616 21.625 0.313 6.135 -7.781 9.578 -18.415 17.969 -23.969 4.798 -6 -1.333 -13.08 -8.125 -12.313 z" stroke="none" color="#000"/></g></svg>