<?xml version="1.0" encoding="UTF-8" standalone="no"?>
<svg
   viewBox="0 0 400 300"
   version="1.1"
   id="svg95"
   sodipodi:docname="placeholder.svg"
   width="400"
   height="300"
   inkscape:version="1.2.2 (b0a8486541, 2022-12-01)"
   xmlns:inkscape="http://www.inkscape.org/namespaces/inkscape"
   xmlns:sodipodi="http://sodipodi.sourceforge.net/DTD/sodipodi-0.dtd"
   xmlns="http://www.w3.org/2000/svg"
   xmlns:svg="http://www.w3.org/2000/svg">
  <defs
     id="defs99" />
  <sodipodi:namedview
     id="namedview97"
     pagecolor="#ffffff"
     bordercolor="#000000"
     borderopacity="0.25"
     inkscape:showpageshadow="2"
     inkscape:pageopacity="0.0"
     inkscape:pagecheckerboard="0"
     inkscape:deskcolor="#d1d1d1"
     showgrid="false"
     inkscape:zoom="0.9375"
     inkscape:cx="146.66667"
     inkscape:cy="131.2"
     inkscape:window-width="1280"
     inkscape:window-height="731"
     inkscape:window-x="0"
     inkscape:window-y="0"
     inkscape:window-maximized="1"
     inkscape:current-layer="svg95" />
  <!--! Font Awesome Pro 6.4.0 by @fontawesome - https://fontawesome.com License - https://fontawesome.com/license (Commercial License) Copyright 2023 Fonticons, Inc. -->
  <rect
     style="fill:#cccccc;stroke-width:3.20262"
     id="rect311"
     width="400"
     height="300"
     x="0"
     y="0" />
  <path
     d="m 201.12189,196.41178 c 10.93842,-6.59111 22.68321,-12.7615 35.44471,-12.7615 h 19.5279 c 1.61272,0 3.19037,-0.0701 4.76803,-0.24541 l 29.90539,42.73699 c 1.40235,1.99837 3.96167,2.87484 6.27556,2.13861 2.31391,-0.73625 3.92662,-2.9099 3.92662,-5.36404 v -84.14175 c 0,-24.78676 -20.08884,-44.875596 -44.8756,-44.875596 h -19.5279 c -12.7615,0 -24.50629,-6.170401 -35.44471,-12.761498 -10.13207,-6.13534 -22.05215,-9.676303 -34.77859,-9.676303 -37.16261,0 -67.313398,30.150797 -67.313398,67.313397 0,24.927 13.532798,46.66361 33.656708,58.30322 v 23.03381 c 0,4.66285 3.75131,8.41417 8.41417,8.41417 4.66285,0 8.41417,-3.75132 8.41417,-8.41417 v -16.12718 c 5.36404,1.36731 11.00854,2.10355 16.82835,2.10355 1.89319,0 3.75131,-0.0701 5.60945,-0.24541 v 14.26904 c 0,4.66285 3.75132,8.41417 8.41418,8.41417 4.66285,0 8.41417,-3.75132 8.41417,-8.41417 v -17.84507 c 4.34733,-1.5426 8.48429,-3.5059 12.34079,-5.85486 z M 256.0945,130.3605 a 8.41418,8.41418 0 1 1 0,16.82836 8.41418,8.41418 0 1 1 0,-16.82836 z"
     id="path93"
     style="fill:#666666;stroke-width:0.350591" />
</svg>
