<?xml version="1.0" encoding="UTF-8" standalone="no"?>
<!-- Created with Inkscape (http://www.inkscape.org/) -->

<svg
   id="svg2"
   version="1.1"
   inkscape:version="1.2.2 (b0a8486541, 2022-12-01)"
   width="650"
   height="650"
   viewBox="0 0 650.00002 649.99998"
   sodipodi:docname="reptile.svg"
   xmlns:inkscape="http://www.inkscape.org/namespaces/inkscape"
   xmlns:sodipodi="http://sodipodi.sourceforge.net/DTD/sodipodi-0.dtd"
   xmlns="http://www.w3.org/2000/svg"
   xmlns:svg="http://www.w3.org/2000/svg"
   xmlns:rdf="http://www.w3.org/1999/02/22-rdf-syntax-ns#"
   xmlns:cc="http://creativecommons.org/ns#"
   xmlns:dc="http://purl.org/dc/elements/1.1/">
  <metadata
     id="metadata8">
    <rdf:RDF>
      <cc:Work
         rdf:about="">
        <dc:format>image/svg+xml</dc:format>
        <dc:type
           rdf:resource="http://purl.org/dc/dcmitype/StillImage" />
      </cc:Work>
    </rdf:RDF>
  </metadata>
  <defs
     id="defs6" />
  <sodipodi:namedview
     pagecolor="#a5a5a5"
     bordercolor="#666666"
     borderopacity="1"
     objecttolerance="10"
     gridtolerance="10"
     guidetolerance="10"
     inkscape:pageopacity="0"
     inkscape:pageshadow="2"
     inkscape:window-width="1280"
     inkscape:window-height="731"
     id="namedview4"
     showgrid="false"
     fit-margin-top="0"
     fit-margin-left="0"
     fit-margin-right="0"
     fit-margin-bottom="0"
     inkscape:zoom="0.55048947"
     inkscape:cx="352.41365"
     inkscape:cy="212.53813"
     inkscape:window-x="0"
     inkscape:window-y="0"
     inkscape:window-maximized="1"
     inkscape:current-layer="svg2"
     inkscape:showpageshadow="2"
     inkscape:pagecheckerboard="0"
     inkscape:deskcolor="#d1d1d1" />
  <path
     style="fill:#0084a4;stroke:#fefefe;stroke-width:5.57148;stroke-linecap:round;stroke-linejoin:round;stroke-dasharray:none;stroke-opacity:1;paint-order:normal;fill-opacity:1"
     d="m 52.298958,304.1695 c 0.52043,-0.85346 1.097905,-1.67088 1.657411,-2.49926 0.70961,-1.05061 1.403999,-2.11258 2.155446,-3.13368 1.023072,-1.39022 1.853429,-2.99162 3.200729,-4.07056 2.236233,-1.79084 5.018371,-2.85648 7.753929,-3.70767 3.030875,-0.94308 6.284809,-0.90893 9.405067,-1.49168 4.262862,-0.79614 12.965052,1.5924 12.718514,-2.73716 -0.195876,-3.43986 -6.842578,-0.91151 -10.286507,-1.01354 -3.09023,-0.0915 -6.248876,1.02824 -9.267708,0.36149 -4.959949,-1.09547 -9.922579,-3.40673 -13.560275,-6.95192 -0.772842,-0.75318 -1.85272,-1.80591 -1.550671,-2.84193 1.164682,-3.99483 6.912298,-4.95073 10.931585,-6.02797 4.07917,-1.09329 8.446225,-0.3938 12.666941,-0.25069 7.941275,0.26926 19.756153,8.95636 23.746151,2.08496 0.59359,-1.02225 -1.24869,-2.01902 -2.020488,-2.91438 -1.901948,-2.20645 -4.560936,-3.69986 -6.369462,-5.98352 -1.703311,-2.15078 -3.336457,-4.49854 -4.111004,-7.1305 -0.945104,-3.21154 -2.996337,-7.80462 -0.496142,-10.03086 0.917935,-0.81736 2.435084,0.34976 3.637082,0.60642 2.165927,0.4625 4.40991,0.76821 6.428516,1.67945 2.393328,1.08043 4.596538,2.62784 6.534748,4.39948 2.65897,2.43045 3.90802,6.25972 6.8146,8.38787 9.48443,6.94435 21.45903,9.86946 32.8079,12.93235 4.10079,1.10674 8.94228,4.0918 12.59613,1.92599 0.96356,-0.57116 0.82475,-2.08568 1.14888,-3.15789 0.52564,-1.73883 0.83438,-3.53622 1.2859,-5.29576 0.51189,-1.9948 1.03051,-3.98867 1.61324,-5.96392 0.40517,-1.3733 1.2427,-2.66095 1.3087,-4.09125 0.16397,-3.55335 -1.73494,-6.90854 -2.30138,-10.42028 -0.12416,-0.76975 -0.15868,-1.55129 -0.23928,-2.32679 -0.16358,-1.57391 -0.428,-3.14025 -0.49583,-4.72118 -0.26422,-6.15832 2.61846,-12.75762 0.34912,-18.48865 -0.62895,-1.58838 -2.09089,-2.82903 -3.57857,-3.66883 -5.92111,-3.34253 -13.26859,-2.98563 -19.86119,-4.64988 -9.09436,-2.29576 -18.49747,-3.76085 -27.15986,-7.35819 -2.44791,-1.01657 -4.82816,-2.30394 -6.89021,-3.96934 -6.258718,-5.05486 -10.896954,-11.84127 -16.178866,-17.90961 -6.221288,-7.14757 -12.785639,-14.05242 -18.265124,-21.78336 -2.04099,-2.87961 -3.619429,-6.0607 -5.402241,-9.1069 -1.524299,-2.6045 -2.94248,-5.27185 -4.526736,-7.84032 -4.598199,-7.45479 -10.07127,-14.36172 -14.438978,-21.95385 -2.10671,-3.66197 -4.18033,-7.38386 -5.653268,-11.34349 -1.727095,-4.64287 -4.18963,-9.47247 -3.675429,-14.399395 0.561727,-5.382334 3.4142,-10.672721 7.176655,-14.562326 2.088118,-2.158684 5.040305,-3.486289 7.945132,-4.249269 5.678445,-1.491496 11.740859,-0.593097 17.608671,-0.397942 6.05614,0.20142 12.077524,1.008785 18.106378,1.617345 4.521656,0.456422 9.007858,1.330346 13.548312,1.525339 3.381324,0.145214 6.773294,-0.03536 10.149824,-0.26674 3.6037,-0.246956 7.21909,-1.856542 10.77029,-1.195733 2.05944,0.383221 3.67315,2.023186 5.57849,2.893752 1.85571,0.847892 3.77647,1.547135 5.68715,2.262624 11.50552,4.308496 24.21524,5.93679 34.77237,12.22068 5.91661,3.521725 10.6409,8.805825 15.31177,13.864665 2.79602,3.02826 5.24883,6.37355 7.54336,9.79747 4.58431,6.84081 8.47603,14.12826 12.37529,21.38141 1.08283,2.01421 1.704,4.29813 3.05715,6.14165 1.36543,1.86025 3.05081,3.54645 4.98776,4.80075 1.35243,0.87579 2.9225,1.4071 4.48345,1.80653 2.68841,0.68792 5.49219,0.97856 8.26723,0.97994 1.22908,6.2e-4 2.45584,-0.19429 3.66204,-0.43036 3.83512,-0.75057 7.77518,-1.43532 11.30031,-3.12204 5.87971,-2.81338 10.68581,-7.47268 15.88045,-11.40991 5.20247,-3.94319 9.98143,-8.43943 15.30025,-12.22423 1.43066,-1.01804 3.57702,-1.29018 4.45521,-2.8107 1.24339,-2.15281 0.21815,-4.96752 0.2948,-7.45242 0.13632,-4.41934 -0.10786,-8.8579 0.29357,-13.26108 0.28544,-3.13105 0.80963,-6.244746 1.49982,-9.312092 1.37776,-6.123102 7.59129,-12.253934 5.25689,-18.07984 -1.73916,-4.340368 -8.42591,-4.189889 -12.13392,-7.038417 -4.49933,-3.45643 -8.88075,-7.316483 -12.04683,-12.024653 -1.05863,-1.574252 -2.33603,-3.35461 -2.20419,-5.247116 0.0967,-1.388713 0.92914,-2.894474 2.13568,-3.588854 1.50994,-0.868999 3.52489,-0.429801 5.22617,-0.0546 4.46444,0.984596 8.38769,3.674545 12.38197,5.89862 2.96536,1.651149 6.21081,7.953746 8.5639,5.507818 2.10926,-2.192476 -3.88973,-4.748725 -5.23028,-7.479811 -3.45192,-7.032506 -7.58672,-14.623853 -6.99877,-22.435779 0.20231,-2.688043 0.88501,-6.787515 3.53665,-7.272596 4.51261,-0.82552 7.29692,5.745477 10.01056,9.444288 2.44409,3.331365 3.73891,7.373734 5.40736,11.153645 1.20902,2.739076 0.36986,8.783191 3.33116,8.341584 4.49971,-0.671025 0.26582,-9.136408 1.14335,-13.600453 1.32306,-6.730678 3.18658,-13.454384 6.16636,-19.63285 1.32743,-2.752372 3.18158,-5.244098 5.13395,-7.594807 0.59278,-0.713717 1.06722,-2.118378 1.98061,-1.955555 4.89595,0.872775 5.36218,8.629129 6.34044,13.505102 0.58916,2.936581 -0.41211,5.982031 -0.3857,8.977014 0.006,0.655759 -0.46975,1.6751 0.1191,1.963747 1.90047,0.931602 3.53766,-2.327807 5.24526,-3.578332 3.08757,-2.261125 5.91736,-4.863848 9.03092,-7.089053 1.55142,-1.108768 3.06775,-3.912583 4.79918,-3.113565 0.92569,0.427187 0.28888,2.018858 0.39821,3.032486 0.21344,1.979204 0.48902,3.960204 0.50283,5.950838 0.0335,4.818119 0.1393,9.741481 -1.01714,14.418877 -0.30363,1.228034 -2.27437,2.452682 -1.52781,3.473912 1.46139,1.999084 5.11868,-1.779334 7.38714,-0.786296 1.12289,0.491553 2.08959,1.729382 2.19459,2.950642 0.20266,2.357252 -1.779,4.444308 -3.20168,6.334717 -4.42557,5.880474 -10.49237,10.3522 -16.17823,15.025151 -1.89833,1.560146 -4.57213,2.304939 -5.96772,4.327321 -4.60893,6.678926 -5.75231,15.405427 -6.36793,23.496871 -0.45075,5.924516 2.2625,11.775586 2.00607,17.711696 -0.2073,4.79847 -0.85946,9.75318 -2.85026,14.1241 -2.41299,5.29789 -6.46536,9.79391 -10.64771,13.84336 -2.89468,2.8027 -6.54956,4.69478 -9.81412,7.05634 -4.06397,2.93984 -8.13052,5.87641 -12.16637,8.85473 -5.36713,3.96076 -10.82264,7.81053 -16.02248,11.9885 -0.41649,0.33463 -1.30125,0.51929 -1.21409,1.04639 0.21282,1.28717 2.44385,0.92041 3.62942,1.46495 2.32589,1.06829 4.51829,2.40853 6.81967,3.52866 3.39689,1.65336 6.87562,3.13303 10.30921,4.70873 2.65084,1.21649 5.24986,2.55113 7.94599,3.66364 4.27514,1.76408 8.66242,3.24552 13.03001,4.76638 2.61847,0.91179 5.22671,1.86642 7.89713,2.61251 12.31651,3.44111 24.85221,6.07669 37.39411,8.57435 3.11516,0.62037 6.35818,0.66075 9.39525,1.59097 15.94934,4.8851 31.16272,12.27841 45.55543,20.71023 7.63137,4.47076 14.07257,10.73226 21.38973,15.70063 2.27941,1.54772 4.63808,2.97716 7.004,4.3891 3.87633,2.31333 7.82912,4.49673 11.77709,6.68556 1.7935,0.99435 3.48858,2.21285 5.4103,2.92865 0.97056,0.3615 2.28287,1.38168 3.03424,0.66887 1.19258,-1.13141 -0.54946,-3.24159 -0.80672,-4.86521 -0.40075,-2.52914 -0.78979,-5.0603 -1.14776,-7.59585 -0.32591,-2.3084 -0.91596,-4.60308 -0.91039,-6.93437 0.002,-0.97597 0.2492,-1.93612 0.39499,-2.90114 0.89433,-5.91984 0.83574,-12.11424 2.9424,-17.71835 0.6491,-1.72674 1.56796,-3.44349 2.9142,-4.70468 1.67162,-1.56605 3.82255,-2.76415 6.06522,-3.23027 4.9519,-1.02922 10.10127,0.62188 15.12524,1.2054 4.52713,0.52581 9.02692,1.27724 13.51561,2.06663 5.39129,0.94812 10.80087,1.85687 16.10625,3.20513 3.61454,0.91857 7.1252,2.20599 10.68431,3.3202 10.22092,3.19976 20.31006,6.84484 30.64255,9.66367 1.26108,0.34404 2.71395,1.57866 3.82076,0.8832 3.60037,-2.2623 2.06812,-8.25646 2.80397,-12.44444 0.62366,-3.54945 0.10642,-7.34715 1.36129,-10.72545 1.23051,-3.31277 3.09948,-6.62557 5.85473,-8.83854 2.23499,-1.7951 5.4046,-4.25227 8.02535,-3.09067 3.84741,1.7053 4.68683,7.5703 4.55089,11.77651 -0.15556,4.81267 -4.49752,8.55759 -6.06629,13.11005 -1.01173,2.93598 -4.88745,7.64799 -2.12685,9.0702 3.5681,1.83822 5.34754,-5.9881 7.94994,-9.04392 2.86225,-3.36092 4.88615,-7.5806 8.42763,-10.21616 2.98281,-2.21979 6.59089,-3.86767 10.28038,-4.32849 2.4024,-0.30007 5.78745,-0.89398 7.18165,1.08535 1.26096,1.79017 -0.71828,4.32563 -1.26306,6.44645 -0.76579,2.98117 -1.14755,6.20603 -2.81154,8.79541 -3.03763,4.72692 -8.19652,7.69397 -12.47237,11.33926 -3.35639,2.86141 -12.08526,4.20926 -10.33772,8.25882 2.36593,5.48259 11.77105,-2.25567 17.73683,-2.51243 6.92437,-0.298 14.36197,-1.52514 20.76125,1.13662 3.49766,1.45485 8.3747,3.82206 8.44069,7.60965 0.0375,2.1566 -2.75713,3.46746 -4.65216,4.49759 -6.32607,3.43879 -13.87597,4.20026 -21.04523,4.86799 -6.07611,0.56593 -17.07855,-6.74153 -18.29139,-0.76087 -0.53524,2.63932 5.02127,1.95181 7.56525,2.83538 2.61463,0.90811 5.51331,1.14457 7.90778,2.5329 3.9071,2.26539 7.22839,5.577 9.99727,9.14502 1.10324,1.42167 1.74677,3.14845 2.54075,4.76335 0.59702,1.21431 2.16826,2.44223 1.66968,3.70017 -0.4092,1.03244 -1.99846,1.01587 -3.07874,1.27344 -2.39271,0.57051 -4.89833,0.54781 -7.35809,0.55982 -4.13997,0.0202 -8.44308,0.41922 -12.39287,-0.82127 -2.33734,-0.73406 -4.20664,-2.51263 -6.29466,-3.7941 -1.71666,-1.05357 -3.84241,-4.7553 -5.1245,-3.20185 -1.19637,1.44955 2.52469,2.78625 3.84037,4.12844 1.39022,1.41823 3.33162,2.39955 4.28052,4.14416 0.77707,1.42872 0.74384,3.17292 0.94404,4.78692 0.26533,2.13915 0.31931,4.30239 0.3367,6.45786 0.0101,1.17593 0.48151,2.51925 -0.12682,3.52565 -0.73535,1.21649 -2.28276,2.03897 -3.70211,2.11649 -2.53,0.13819 -4.68267,-1.94281 -6.97061,-3.03152 -2.08998,-0.9945 -4.46449,-1.62443 -6.1652,-3.19435 -4.13157,-3.81384 -5.89786,-9.57549 -8.93128,-14.3098 -2.14246,-3.34377 -3.9691,-6.93259 -6.54583,-9.9544 -1.80856,-2.12095 -3.68875,-4.37683 -6.17313,-5.6406 -7.28754,-3.70705 -16.02328,-3.26443 -24.03583,-4.8921 -2.69168,-0.54678 -5.3326,-1.77762 -8.07566,-1.63728 -0.74475,0.0381 -1.73933,0.0343 -2.13576,0.66596 -3.15713,5.03012 0.91792,11.93292 2.61895,17.62292 1.64209,5.4929 5.0683,10.29628 7.22386,15.60872 3.26762,8.05315 4.65366,16.87537 8.63246,24.60193 2.39412,4.64925 5.74965,8.75678 9.03372,12.82644 3.82714,4.74266 8.71073,8.58652 12.38621,13.44765 7.78747,18.22105 26.4831,33.53788 34.20848,50.11311 1.32097,2.8581 2.12054,5.92973 3.22943,8.8766 0.89386,2.37546 1.78107,4.75469 2.75965,7.09651 1.21413,2.90551 2.50478,5.77989 3.85862,8.62301 0.99223,2.08375 2.09541,4.11291 3.12373,6.17909 1.46177,2.93714 3.27271,5.73298 4.33005,8.83872 0.83812,2.46182 0.98146,5.10866 1.55567,7.64505 0.63751,2.81605 1.15074,5.67643 2.09699,8.40427 0.65313,1.88285 1.74868,3.58785 2.45574,5.45112 1.0542,2.77813 1.89828,5.63639 2.65214,8.5106 0.76029,2.89877 1.33062,5.8456 1.88223,8.7912 0.74066,3.95509 1.71042,7.89998 1.91517,11.9186 0.10997,2.1582 -0.33623,4.31159 -0.37267,6.47228 -0.0509,3.01964 0.0661,6.04128 0.2155,9.05766 0.16436,3.31954 0.66829,6.62005 0.74873,9.94269 0.12081,4.99099 -0.0739,9.99024 -0.40072,14.97198 -0.10586,1.61357 -0.34284,3.21587 -0.50498,4.82476 -0.45232,4.48764 -0.59166,9.01446 -1.30528,13.46802 -0.4556,2.84334 -1.07616,5.66766 -1.89496,8.42839 -1.44029,4.85621 -3.79803,9.40486 -5.28893,14.24576 -0.53243,1.72876 -0.91204,3.50185 -1.30066,5.2685 -0.3643,1.65605 -0.43846,3.38287 -0.96584,4.99443 -0.23816,0.72775 -0.62564,1.39894 -0.98158,2.07692 -0.64715,1.23265 -1.37385,2.42231 -2.09482,3.61329 -0.9811,1.62066 -2.00542,3.21497 -3.03493,4.80533 -0.8151,1.25912 -1.71723,2.46266 -2.48741,3.74974 -0.44426,0.74241 -0.82543,1.52083 -1.22786,2.28672 -0.69704,1.32658 -1.32324,2.69077 -2.0553,3.99835 -1.26546,2.2603 -2.45807,4.58655 -4.0351,6.6416 -3.17121,4.13247 -6.85757,7.89012 -10.80112,11.29339 -8.38123,7.23295 -17.35064,13.9556 -27.10174,19.19738 -3.84317,2.06593 -8.16413,3.08498 -12.2031,4.73562 -1.15573,0.47231 -2.26521,1.05968 -3.44141,1.47839 -4.29811,1.53008 -8.69397,2.82981 -13.16059,3.75937 -3.37925,0.70327 -6.81731,1.19266 -10.2647,1.3642 -11.42597,0.56856 -22.88821,-0.34596 -34.30199,-1.12172 -2.00018,-0.13595 -4.00189,-0.30786 -5.98244,-0.6186 -2.46373,-0.38657 -4.88962,-0.98746 -7.31999,-1.54663 -2.16931,-0.49909 -4.33823,-1.00737 -6.48006,-1.61361 -1.13469,-0.32118 -2.27261,-0.64387 -3.37171,-1.0712 -0.76131,-0.29599 -1.47442,-0.7042 -2.22326,-1.03043 -6.7454,-2.93868 -13.83101,-5.10099 -20.43481,-8.3454 -1.21491,-0.59688 -2.38334,-1.29131 -3.51275,-2.03746 -1.43104,-0.94544 -2.70802,-2.10883 -4.12078,-3.08138 -1.68792,-1.16197 -3.47118,-2.17911 -5.19638,-3.28498 -2.76711,-1.77372 -5.66287,-3.36879 -8.26772,-5.37324 -2.28857,-1.76107 -4.27115,-3.88765 -6.42412,-5.81212 -1.91211,-1.70915 -3.8366,-3.4045 -5.76704,-5.09294 -1.2297,-1.07555 -2.55487,-2.04822 -3.70449,-3.20898 -0.95738,-0.96664 -1.75263,-2.08148 -2.64252,-3.11059 -0.61039,-0.70587 -1.25574,-1.38169 -1.84963,-2.1015 -4.09367,-4.9617 -9.75641,-9.17003 -11.79992,-15.26926 -0.79747,-2.38019 -2.12141,-6.33397 0.0854,-7.53019 3.68385,-1.99681 7.29073,4.18418 10.61018,6.74138 2.75484,2.12223 5.10737,4.72094 7.65611,7.08674 1.55719,1.44544 3.04164,2.97274 4.66556,4.3428 2.53537,2.13904 5.18701,4.14413 7.90994,6.03868 4.36365,3.03613 8.7788,6.04054 13.48025,8.5217 7.95001,4.19559 16.27196,7.7265 24.75978,10.6867 0.83927,0.2927 1.72419,0.43576 2.57441,0.69499 1.6906,0.51548 3.29212,1.33405 5.01928,1.70926 8.61535,1.87156 17.51242,2.19178 26.31782,2.63005 2.67829,0.13331 5.36894,0.17416 8.04483,-10e-4 7.48586,-0.49034 15.05502,-1.03828 22.31381,-2.93262 6.68699,-1.74513 13.00896,-4.72974 19.2548,-7.68792 1.37172,-0.64967 2.69719,-1.39958 3.9855,-2.20205 2.7374,-1.70509 5.35913,-3.5952 7.93357,-5.53763 3.11497,-2.35026 6.27771,-4.6738 9.07773,-7.39167 1.65634,-1.60772 3.14737,-3.38924 4.53047,-5.2373 0.86852,-1.16047 1.60748,-2.4138 2.35318,-3.65677 0.83276,-1.38809 1.5674,-2.8328 2.36615,-4.24073 0.899,-1.58467 1.92066,-3.10279 2.73071,-4.73471 1.15995,-2.33682 2.19748,-4.74334 3.03597,-7.21379 0.96555,-2.84482 1.45258,-5.83152 2.28261,-8.71879 0.83523,-2.90534 2.08247,-5.69722 2.71309,-8.65373 0.64904,-3.04292 0.95526,-6.16221 1.08484,-9.27089 0.2132,-5.11502 -0.43892,-10.23094 -0.50941,-15.34991 -0.0289,-2.10082 0.14905,-4.205 0.0356,-6.30295 -0.17074,-3.15625 -0.80891,-6.27177 -1.07611,-9.42131 -0.20816,-2.4533 -0.0492,-4.93942 -0.4101,-7.37495 -0.98131,-6.62374 -2.87087,-13.09139 -4.74788,-19.51897 -0.7736,-2.64915 -1.6685,-5.26589 -2.68001,-7.83364 -1.88516,-4.78553 -4.01682,-9.47697 -6.30441,-14.08371 -1.58154,-3.18487 -3.36924,-6.26379 -5.12301,-9.35714 -2.72496,-4.80632 -5.53282,-9.56591 -8.38799,-14.29602 -1.71021,-2.83328 -3.67706,-5.51606 -5.23618,-8.43521 -1.25069,-2.34166 -1.72262,-5.10969 -3.28795,-7.25385 -1.85249,-2.53751 -4.82812,-4.04285 -6.99101,-6.3216 -1.87593,-1.97641 -3.5453,-4.14558 -5.15929,-6.3411 -1.31403,-1.78749 -2.16928,-3.91942 -3.67428,-5.54938 -1.31879,-1.42828 -2.97532,-2.5155 -4.59108,-3.59646 -1.93678,-1.29575 -4.18307,-2.09511 -6.08492,-3.44161 -2.5664,-1.81701 -4.65553,-4.23417 -7.10822,-6.20194 -3.39757,-2.7258 -6.37515,-6.41505 -10.52146,-7.74979 -4.30383,-1.38545 -9.21415,-1.07436 -13.56301,0.16253 -3.7864,1.07692 -6.51189,4.51045 -10.11579,6.09427 -1.98379,0.87183 -4.10187,1.46268 -6.23683,1.83343 -10.73978,1.86501 -21.75496,1.45548 -32.64663,1.89447 -6.2119,0.25037 -12.53337,-0.71223 -18.64606,0.42151 -2.61927,0.48582 -4.9009,2.22703 -7.52311,2.69663 -0.93946,0.16824 -2.20525,-0.6622 -2.86306,0.0293 -1.35317,1.42246 0.33861,3.9247 0.23366,5.88517 -0.35443,6.6204 -1.52191,13.19246 -2.90644,19.67616 -2.70646,12.67421 -10.98784,24.47669 -10.52433,37.42836 0.17121,4.78418 3.72141,8.86387 4.86591,13.5123 1.75285,7.11928 3.59678,14.4809 3.00767,21.7891 -0.20596,2.55486 -1.49683,4.90293 -2.25801,7.35044 -0.37339,1.20057 0.0857,3.28729 -1.13268,3.59783 -4.36634,1.11294 -7.2924,-5.59194 -9.73609,-9.37769 -2.85049,-4.41595 -3.32394,-9.97986 -5.29205,-14.85349 -1.0438,-2.58473 -0.68589,-7.97248 -3.45073,-7.61747 -6.36406,0.81716 -1.12243,12.92026 -3.25544,18.97164 -2.09922,5.95547 -5.51031,11.43736 -9.21212,16.5531 -1.76266,2.43592 -3.14739,6.14888 -6.11527,6.63095 -2.9682,0.48214 -6.26028,-1.83459 -7.90055,-4.35495 -2.41827,-3.71583 -2.02741,-8.90365 -1.15388,-13.25018 1.05551,-5.25206 5.1596,-9.39633 7.47151,-14.22885 1.23874,-2.58931 2.48491,-5.18869 3.42396,-7.90111 0.45116,-1.30319 2.14303,-3.15434 1.05419,-4.00067 -0.54483,-0.42349 -1.27532,0.56868 -1.80981,1.00516 -2.89141,2.36123 -4.83543,5.68889 -7.28442,8.50634 -2.30515,2.65199 -4.08091,5.91046 -6.97394,7.90472 -6.19979,4.27373 -13.76306,9.40911 -21.14859,7.94076 -1.84684,-0.36717 -3.62687,-2.0421 -4.12672,-3.85753 -0.51292,-1.86288 0.90881,-3.76822 1.61163,-5.56807 1.75253,-4.488 3.46091,-9.15745 6.45342,-12.93347 2.31112,-2.91623 5.92913,-4.52877 8.58578,-7.13414 2.08433,-2.04409 7.3813,-4.22005 5.72746,-6.62578 -2.00411,-2.91527 -6.51219,2.9159 -9.9822,3.60453 -5.50261,1.09201 -11.34491,2.0177 -16.81247,0.76197 -1.47177,-0.33803 -2.73079,-1.3146 -3.98259,-2.1592 -1.18941,-0.80249 -2.89794,-1.36925 -3.31901,-2.7409 -0.51175,-1.66704 0.5297,-3.55207 1.4699,-5.02072 1.85236,-2.89355 4.70953,-5.21177 7.77104,-6.77093 4.71264,-2.40007 10.18924,-3.17143 15.46463,-3.54532 3.25124,-0.23042 8.68709,3.90228 9.74386,0.81895 0.64508,-1.88215 -3.54037,-1.90606 -5.00406,-3.25372 -5.58865,-5.14561 -15.56416,-10.5932 -13.95553,-18.01767 0.37053,-1.71015 2.90402,-2.26234 4.64404,-2.44751 2.23267,-0.23761 4.40277,0.97955 6.48643,1.81604 4.10187,1.64672 7.85656,4.05795 11.69657,6.24687 3.92476,2.23723 7.06774,7.0996 11.58489,7.03356 0.72672,-0.0111 1.39394,-0.60403 1.8299,-1.18555 1.13069,-1.50822 1.35778,-3.55117 1.62081,-5.41772 0.44623,-3.16671 -0.0384,-6.3961 -0.10274,-9.59345 -0.0751,-3.73122 -0.14252,-7.46382 -0.3306,-11.19105 -0.50913,-10.08994 -3.87201,-20.27479 -2.15921,-30.23132 1.60094,-9.30635 4.79505,-19.15598 11.34476,-25.95839 2.38311,-2.47507 6.11977,-3.13863 9.28203,-4.48224 0.55348,-0.23517 1.72846,-0.0245 1.69246,-0.62486 -0.13088,-2.18145 -4.25754,-0.98918 -6.37768,-1.5191 -2.96059,-0.74 -5.88589,-1.62007 -8.85658,-2.31836 -2.53222,-0.59523 -5.11563,-0.96296 -7.63914,-1.59403 -4.11506,-1.02907 -8.16133,-2.3186 -12.21423,-3.57031 -15.1775,-4.04373 -27.90467,-9.98229 -41.73399,-15.45223 -4.97093,-2.03629 -9.48302,-5.09143 -13.92379,-8.11408 -13.49597,-9.28994 -24.23565,-19.49545 -37.28335,-28.50705 -3.06934,-2.15519 -5.89794,-4.63698 -8.76024,-7.0604 -3.17239,-2.68595 -6.31972,-5.40825 -9.31948,-8.28572 -1.84794,-1.7726 -3.4365,-3.80944 -5.33864,-5.52375 -3.20736,-2.89062 -6.75274,-5.38404 -10.19651,-7.98849 -2.24209,-1.69563 -4.55129,-3.30077 -6.81209,-4.97138 -3.48374,-2.57429 -6.4159,-9.47297 -10.40513,-7.78489 -1.26255,0.53426 -0.40434,2.71357 -0.52436,4.07923 -1.06899,12.16504 1.00891,24.6955 -1.73786,36.59449 -1.57327,6.81541 -3.57991,14.10717 -8.29269,19.27578 -2.04336,2.24098 -5.05224,3.60067 -7.991,4.34966 -6.62561,1.68862 -13.69108,0.48408 -20.51222,0.0129 -6.02372,-0.41608 -11.91555,-2.10561 -17.9406,-2.50185 -4.37436,-0.28768 -9.31857,-2.03333 -13.15109,0.0949 -3.72339,2.06766 -5.44773,6.76916 -6.83216,10.79685 -1.23523,3.59366 0.51151,7.91113 -1.11507,11.34546 -1.76661,3.73003 -4.70505,8.00922 -8.76635,8.74397 -1.277,0.23102 -2.64989,-0.66972 -3.544962,-1.60937 -1.022676,-1.0736 -1.163459,-2.73077 -1.639947,-4.13485 -0.667144,-1.96591 -1.273765,-3.95966 -1.701621,-5.9911 -0.252167,-1.19726 0.634992,-3.19499 -0.506491,-3.63547 -1.846637,-0.71259 -2.904621,2.71764 -4.557669,3.80634 -2.715274,1.78829 -5.451801,4.53442 -8.700624,4.40855 -2.150367,-0.0833 -4.594393,-1.41004 -5.515865,-3.35475 -0.974913,-2.05749 0.137512,-4.6368 0.948885,-6.7641 2.033364,-5.33118 6.087243,-9.66772 9.514668,-14.22938 0.780895,-1.03932 3.240176,-1.90862 2.510494,-2.98451 -0.442569,-0.65255 -1.510446,0.45855 -2.244998,0.74513 -0.509384,0.19872 -0.992196,0.46025 -1.495433,0.67406 -1.686648,0.71661 -3.331538,1.57944 -5.105415,2.03952 -6.328486,1.64145 -12.937926,3.02187 -19.454477,2.49401 -1.759445,-0.14252 -3.480064,-0.75525 -5.075777,-1.51001 -1.385607,-0.65538 -3.455043,-1.08411 -3.809514,-2.57535 -6.6e-5,-2.8e-4 2.74e-4,-5.2e-4 4.24e-4,-7.6e-4 z"
     id="path4138"
     inkscape:connector-curvature="0"
     sodipodi:nodetypes="aaaaaaaaaaaaaaaaaaaaaaaaaaaaaaaaaaaaaaaaaaaaaaaaaaaaaaaaaaaaaaaaaaaaaaaaaaaaaaaaaaaaaaaaaaaaaaaaaaaaaaaaaaaaaaaaaaaaaaaaaaaaaaaaaaaaaaaaaaaaaaaaaaaaaaaaaaaaaaaaaaaaaaaaaaaaaaaaaaaaaaaaaccaaaaaaaaaaaaaaaaaaaaaaaaaaaaaaaaaaaaaaaaaaaaaaaaaaaaaaaaaaaaaaaaaaaaaaaaaaaaaaaaaaaaaaaaaaaaaaaaaaaaaaaaaaaaaaaaaaaaaaaaaaaaaaaaaaaaaaaaaaaaaaaaaaaaaaaaccccaaaaaaaaaaaaaaaaaaaaaaaaaaaaaaaaaa" />
</svg>
